#!OML:ASF H:\Pregnant\Project 1\Capture day 1\Session 1\femalepreg.ASF
:FULLY-SPECIFIED
:DEGREES
640
root 4.26278 1.85817 16.0058 -70.4656 -5.67776 64.3988
lowerback -6.20323 3.62966 13.5688
upperback -5.11726 4.16535 -7.57839
thorax -0.491904 1.66588 -15.9392
lowerneck -28.0512 14.0806 27.462
upperneck 37.0608 9.58956 -5.047
head 21.9162 7.00984 -4.314
rclavicle 1.59028e-014 5.24792e-014
rhumerus 2.12297 17.1038 -62.3437
rradius 37.0135
rwrist -8.81076
rhand -30.9578 -33.6418
rfingers 7.12502
rthumb -4.24242 -63.5793
lclavicle 1.59028e-014 5.24792e-014
lhumerus -62.0825 -11.9368 62.8324
lradius 93.6878
lwrist 31.189
lhand -4.03647 -4.5059
lfingers 7.12502
lthumb 21.7189 24.2957
rfemur -78.0746 -13.6651 43.1624
rtibia 132.995
rfoot -28.0359 1.00285
rtoes 63.209
lfemur -65.3287 29.7393 -39.4294
ltibia 133.996
lfoot -20.4434 -7.05323
ltoes -50.4681
641
root 4.28328 1.85061 16.0029 -70.4368 -5.75433 63.8678
lowerback -6.16291 3.56682 13.7487
upperback -5.02054 4.079 -7.45484
thorax -0.440833 1.633 -15.9114
lowerneck -28.3479 14.0874 27.2836
upperneck 37.0718 9.5802 -5.02479
head 21.9766 6.97978 -4.27144
rclavicle -2.22639e-014 -3.02153e-014
rhumerus 2.28442 16.711 -61.9189
rradius 37.0826
rwrist -9.68231
rhand -31.2544 -34.4896
rfingers 7.12502
rthumb -4.52877 -64.4212
lclavicle -2.22639e-014 -3.02153e-014
lhumerus -61.9732 -11.7348 62.9118
lradius 93.6363
lwrist 31.1443
lhand -3.99593 -4.45227
lfingers 7.12502
lthumb 21.7579 24.3448
rfemur -78.3007 -14.2015 43.3897
rtibia 133.003
rfoot -27.9215 1.01375
rtoes 63.243
lfemur -65.5965 29.6252 -39.4236
ltibia 134.156
lfoot -20.4317 -6.8105
ltoes -50.2603
642
root 4.30353 1.8436 16.0013 -70.4095 -5.75429 63.3601
lowerback -6.14008 3.50463 13.8457
upperback -4.92443 3.99456 -7.35418
thorax -0.382235 1.60307 -15.8579
lowerneck -28.6047 14.0921 27.1348
upperneck 37.0476 9.57726 -5.0241
head 22.0082 6.95119 -4.24351
rclavicle 9.54166e-015 1.00187e-013
rhumerus 2.45268 16.3403 -61.4882
rradius 37.1173
rwrist -10.5504
rhand -31.5906 -35.0391
rfingers 7.12502
rthumb -4.85339 -64.9636
lclavicle 9.54166e-015 1.00187e-013
lhumerus -61.8594 -11.5379 62.9929
lradius 93.5722
lwrist 31.0626
lhand -3.97558 -4.42595
lfingers 7.12502
lthumb 21.7774 24.3689
rfemur -78.5511 -14.76 43.5353
rtibia 133.065
rfoot -27.8195 1.07407
rtoes 63.2711
lfemur -65.8629 29.339 -39.47
ltibia 134.268
lfoot -20.3083 -6.70294
ltoes -50.1429
643
root 4.32257 1.83666 16.0011 -70.4014 -5.62122 62.8913
lowerback -6.1302 3.43852 13.7864
upperback -4.82095 3.90962 -7.2818
thorax -0.313472 1.57696 -15.7389
lowerneck -28.8348 14.0883 26.976
upperneck 37.0036 9.58213 -5.03195
head 22.0199 6.92188 -4.21724
rclavicle -5.08889e-014 -2.8625e-014
rhumerus 2.58343 15.9026 -61.0755
rradius 37.1914
rwrist -11.2973
rhand -31.9272 -35.356
rfingers 7.12502
rthumb -5.17846 -65.2727
lclavicle -5.08889e-014 -2.8625e-014
lhumerus -61.7433 -11.3423 63.0964
lradius 93.4997
lwrist 30.9415
lhand -3.98186 -4.42092
lfingers 7.12502
lthumb 21.7714 24.3746
rfemur -78.8189 -15.3825 43.5247
rtibia 133.2
rfoot -27.721 1.18394
rtoes 63.3097
lfemur -66.081 28.8777 -39.6323
ltibia 134.302
lfoot -20.0809 -6.65915
ltoes -50.1485
644
root 4.33983 1.82919 16.0028 -70.4456 -5.27552 62.4795
lowerback -6.11191 3.35609 13.4827
upperback -4.70057 3.81441 -7.26079
thorax -0.241863 1.55085 -15.5291
lowerneck -28.5003 14.0189 27.1486
upperneck 37.2159 9.86137 -5.577
head 21.2679 6.85963 -4.07102
rclavicle 5.725e-014 3.33958e-014
rhumerus 2.67646 15.4344 -60.6794
rradius 37.3029
rwrist -11.9448
rhand -32.2605 -35.4935
rfingers 7.12502
rthumb -5.5003 -65.4021
lclavicle 5.725e-014 3.33958e-014
lhumerus -61.6335 -11.1414 63.2159
lradius 93.4227
lwrist 30.7731
lhand -4.00762 -4.43998
lfingers 7.12502
lthumb 21.7466 24.3584
rfemur -79.0843 -16.144 43.2614
rtibia 133.439
rfoot -27.6065 1.41414
rtoes 63.351
lfemur -66.1793 28.2371 -40.0007
ltibia 134.223
lfoot -19.7557 -6.63172
ltoes -50.1795
645
root 4.35488 1.82089 16.0069 -70.5603 -4.67828 62.1312
lowerback -6.07386 3.25213 12.8895
upperback -4.55692 3.70554 -7.29841
thorax -0.169254 1.52336 -15.2095
lowerneck -28.7459 13.9993 26.9494
upperneck 37.243 9.86168 -5.59106
head 21.3199 6.82791 -4.04864
rclavicle -3.18055e-015 7.95139e-015
rhumerus 2.72226 14.9052 -60.3103
rradius 37.4665
rwrist -12.4513
rhand -32.5522 -35.5013
rfingers 7.12502
rthumb -5.78184 -65.4024
lclavicle -3.18055e-015 7.95139e-015
lhumerus -61.5293 -10.9315 63.3548
lradius 93.3403
lwrist 30.5614
lhand -4.04683 -4.4758
lfingers 7.12502
lthumb 21.709 24.327
rfemur -79.3357 -17.1069 42.6988
rtibia 133.8
rfoot -27.463 1.78381
rtoes 63.4023
lfemur -66.1162 27.4391 -40.6241
ltibia 134.022
lfoot -19.3583 -6.55248
ltoes -50.2065
646
root 4.36863 1.81188 16.0133 -70.7176 -3.91607 61.8256
lowerback -6.02114 3.13596 12.1051
upperback -4.40243 3.59053 -7.37572
thorax -0.100413 1.49458 -14.8185
lowerneck -29.3156 14.0095 26.5836
upperneck 37.1985 9.72025 -5.35851
head 21.8296 6.81403 -4.10613
rclavicle -3.18055e-014 -4.77083e-015
rhumerus 2.73234 14.3686 -59.9567
rradius 37.6576
rwrist -12.864
rhand -32.8027 -35.4281
rfingers 7.12502
rthumb -6.02374 -65.3225
lclavicle -3.18055e-014 -4.77083e-015
lhumerus -61.4336 -10.716 63.5003
lradius 93.2583
lwrist 30.3145
lhand -4.08427 -4.52544
lfingers 7.12502
lthumb 21.673 24.2815
rfemur -79.5821 -18.2169 41.9412
rtibia 134.245
rfoot -27.2913 2.25496
rtoes 63.4591
lfemur -65.962 26.5818 -41.4266
ltibia 133.756
lfoot -18.9176 -6.42461
ltoes -50.1696
647
root 4.38194 1.80243 16.0208 -70.9112 -3.10271 61.5442
lowerback -5.94142 3.01882 11.2544
upperback -4.24185 3.47985 -7.46208
thorax -0.0402379 1.46701 -14.3976
lowerneck -29.5588 13.9773 26.3871
upperneck 37.2808 9.72845 -5.4172
head 21.935 6.78429 -4.10777
rclavicle -4.13472e-014 -2.22639e-014
rhumerus 2.73076 13.8661 -59.6022
rradius 37.8322
rwrist -13.2115
rhand -33.0187 -35.2867
rfingers 7.12502
rthumb -6.23222 -65.175
lclavicle -4.13472e-014 -2.22639e-014
lhumerus -61.3456 -10.4986 63.6513
lradius 93.1759
lwrist 30.0503
lhand -4.12079 -4.58933
lfingers 7.12502
lthumb 21.638 24.2216
rfemur -79.7868 -19.4004 41.1117
rtibia 134.714
rfoot -27.1076 2.76379
rtoes 63.5156
lfemur -65.7525 25.7986 -42.2711
ltibia 133.478
lfoot -18.4742 -6.29431
ltoes -50.0295
648
root 4.39513 1.79342 16.0279 -71.1018 -2.35957 61.267
lowerback -5.85685 2.91697 10.4789
upperback -4.09396 3.38634 -7.53671
thorax 0.0123055 1.44411 -14.0093
lowerneck -29.7772 13.9458 26.2345
upperneck 37.3712 9.73811 -5.50627
head 22.0489 6.75813 -4.1328
rclavicle 4.77083e-014 6.52014e-014
rhumerus 2.7632 13.5096 -59.2239
rradius 37.8885
rwrist -13.5967
rhand -33.2635 -35.0345
rfingers 7.12502
rthumb -6.46862 -64.9157
lclavicle 4.77083e-014 6.52014e-014
lhumerus -61.2697 -10.2951 63.7859
lradius 93.096
lwrist 29.7882
lhand -4.14036 -4.65101
lfingers 7.12502
lthumb 21.6192 24.1621
rfemur -79.9667 -20.5434 40.3359
rtibia 135.143
rfoot -26.8937 3.24868
rtoes 63.57
lfemur -65.5643 25.1736 -43.0366
ltibia 133.241
lfoot -18.0606 -6.18851
ltoes -49.796
